<svg width="64" height="64" viewBox="0 0 64 64" fill="none" xmlns="http://www.w3.org/2000/svg">
<path d="M0 11.2281C0 5.02698 5.02698 0 11.2281 0H52.7719C58.973 0 64 5.02698 64 11.2281V52.7719C64 58.973 58.973 64 52.7719 64H11.2281C5.02698 64 0 58.973 0 52.7719V11.2281Z" fill="#0F0F0F"/>
<path d="M46.2086 43.6271H17.8058C14.7258 43.622 11.772 42.3923 9.59404 40.2141C7.41614 38.0358 6.19091 35.0857 6.18579 32.0052C6.19091 28.9247 7.41614 25.9704 9.59404 23.7921C11.772 21.6138 14.7258 20.3884 17.8058 20.3833C20.8858 20.3884 23.8375 21.6138 26.0154 23.7921C28.1933 25.9704 29.4186 28.9247 29.4237 32.0052C29.4349 34.3052 28.7522 36.5551 27.4653 38.4613H36.5449C35.2642 36.5522 34.5821 34.3042 34.5865 32.0052C34.5916 28.9247 35.8169 25.9704 37.9948 23.7921C40.1727 21.6138 43.1244 20.3884 46.2044 20.3833C49.2849 20.3867 52.24 21.6135 54.4183 23.7921C56.5965 25.9707 57.821 28.9241 57.8244 32.0052C57.821 35.0859 56.5961 38.0397 54.4183 40.2183C52.2404 42.3968 49.2888 43.6231 46.2086 43.6271V43.6271ZM46.2086 25.5491C44.4966 25.5491 42.8531 26.2297 41.6426 27.4405C40.432 28.6513 39.7535 30.2929 39.7535 32.0052C39.7546 33.7183 40.4347 35.3615 41.6447 36.5741C42.8546 37.7867 44.4958 38.4694 46.2086 38.4739C47.922 38.4711 49.5622 37.787 50.7726 36.5741C51.9829 35.3612 52.6643 33.7188 52.6637 32.0052C52.6637 30.2929 51.9831 28.6513 50.7726 27.4405C49.562 26.2297 47.9206 25.5491 46.2086 25.5491V25.5491ZM17.8058 25.5491C16.0938 25.5491 14.4503 26.2297 13.2397 27.4405C12.0292 28.6513 11.3507 30.2929 11.3507 32.0052C11.3501 33.7188 12.0294 35.3612 13.2397 36.5741C14.4501 37.787 16.0924 38.4711 17.8058 38.4739C19.5191 38.4711 21.1615 37.787 22.3718 36.5741C23.5822 35.3612 24.2615 33.7188 24.2609 32.0052C24.2609 31.1565 24.0922 30.3135 23.7671 29.5295C23.442 28.7455 22.9661 28.0359 22.3655 27.4363C21.765 26.8366 21.0529 26.3604 20.2685 26.0366C19.4841 25.7128 18.6439 25.5476 17.7953 25.5491H17.8058Z" fill="white"/>
</svg>
