<svg xmlns="http://www.w3.org/2000/svg" width="24.004" height="24.004" viewBox="0 0 24.004 24.004">
  <g id="tape_favicon_circle" transform="translate(-152 -208)">
    <path id="Pfad_2870" data-name="Pfad 2870" d="M12,0A12,12,0,1,1,0,12,12,12,0,0,1,12,0Z" transform="translate(152 208)" fill="#0071bb"/>
    <path id="Pfad_2869" data-name="Pfad 2869" d="M14783.646-22358.078h-9.684a3.967,3.967,0,0,1-3.961-3.965,3.964,3.964,0,0,1,3.961-3.961,3.966,3.966,0,0,1,3.962,3.961,3.887,3.887,0,0,1-.667,2.2h3.093a3.925,3.925,0,0,1-.668-2.2,3.967,3.967,0,0,1,3.964-3.961,3.962,3.962,0,0,1,3.956,3.961A3.966,3.966,0,0,1,14783.646-22358.078Zm0-6.162a2.2,2.2,0,0,0-2.2,2.2,2.206,2.206,0,0,0,2.2,2.205,2.2,2.2,0,0,0,2.2-2.205A2.2,2.2,0,0,0,14783.646-22364.24Zm-9.684,0a2.2,2.2,0,0,0-2.2,2.2,2.2,2.2,0,0,0,2.2,2.205,2.2,2.2,0,0,0,2.2-2.205A2.2,2.2,0,0,0,14773.962-22364.24Z" transform="translate(-14614.801 22582.045)" fill="#fff"/>
  </g>
</svg>
