<svg width="24" height="24" viewBox="0 0 24 24"  xmlns="http://www.w3.org/2000/svg">
<path d="M14.619 4.76229L21.209 11.3524C21.3952 11.5397 21.4998 11.7933 21.4998 12.0575C21.4998 12.3216 21.3952 12.5749 21.209 12.7623L14.619 19.3524C14.4317 19.5383 14.1784 19.6427 13.9145 19.6427C13.6505 19.6427 13.3973 19.5383 13.21 19.3524C13.0229 19.1634 12.918 18.9083 12.918 18.6424C12.918 18.3765 13.0229 18.1214 13.21 17.9325L18.09 13.0523H3.92004C3.65483 13.0523 3.40043 12.9469 3.21289 12.7594C3.02535 12.5718 2.92004 12.3175 2.92004 12.0523C2.92004 11.7871 3.02535 11.5328 3.21289 11.3453C3.40043 11.1578 3.65483 11.0523 3.92004 11.0523H18.09L13.21 6.17245C13.1046 6.08306 13.0189 5.97265 12.9583 5.84847C12.8976 5.72429 12.8634 5.58885 12.8577 5.45077C12.852 5.31269 12.8749 5.17498 12.9252 5.04623C12.9754 4.91748 13.0518 4.80048 13.1495 4.70272C13.2472 4.60497 13.364 4.52867 13.4927 4.47836C13.6214 4.42804 13.7592 4.40489 13.8973 4.41049C14.0354 4.41608 14.1708 4.45027 14.295 4.51083C14.4192 4.57139 14.5296 4.65696 14.619 4.76229Z" fill="black"/>
</svg>
